<svg xmlns="http://www.w3.org/2000/svg" xmlns:vectornator="http://vectornator.io" xmlns:xlink="http://www.w3.org/1999/xlink" width="100%" height="100%" fill-rule="evenodd" stroke-linecap="round" stroke-linejoin="round" clip-rule="evenodd" version="1.1" viewBox="0 0 500 500" xml:space="preserve"><metadata><vectornator:setting key="DisplayWhiteBackground" value="0"/><vectornator:setting key="RulersVisible" value="1"/><vectornator:setting key="SnapToEdges" value="0"/><vectornator:setting key="Units" value="Pixels"/><vectornator:setting key="DynamicGuides" value="0"/><vectornator:setting key="SnapToPoints" value="0"/><vectornator:setting key="SnapToGrid" value="1"/><vectornator:setting key="ShowGrid" value="1"/><vectornator:setting key="GridSpacing" value="10"/></metadata><g id="Layer 1" vectornator:layerName="Layer 1"><path fill="#000" d="M-49.7882-96.4767L-50-82.9244C-50-82.9244-20.0633-80.754+10.5616-57.0905C40.2865-34.1152+70.0379+9.63842+71.7584+93.2547L1.87966+93.2547L10.1381+104.054L107.545+232.8L113.05+240L118.556+232.8L215.963+104.054L224.221+93.2547L153.284+93.2547C150.901-2.53742+101.245-51.5849+51.6418-74.666C1.5091-98.0119-47.6178-96.5296-48.9412-96.4767L-49.153-96.4767L-49.7882-96.4767ZM6.11474-75.9366C18.7406-72.8926+31.9487-68.7899+45.7127-62.3843C93.1455-40.309+140.155+4.02694+140.155+100.031L140.155+106.807L196.905+106.807L113.05+217.554L29.1959+106.807L85.9459+106.807L85.9459+100.031C85.9459+8.20908+52.78-41.7913+19.0317-67.8899C14.6643-71.278+10.4292-73.3161+6.11474-75.9366Z" opacity="0"/><path fill="#000" d="M163.103+646.503L51.9061+499.758L122.394+499.758C119.244+334.14+1.19111+323.658+0+323.552L0.238223+310.026C0.238223+310.026+1.13817+310+2.8322+310C23.1341+310+199.472+315.373+203.681+499.758L274.3+499.758L163.103+646.503Z" opacity="0"/><path fill="#000" d="M339.112+290.402C339.112+0.918258+50.8039+2.09367+50.8039+2.09367C50.8039+2.09367+183.869+30.1926+183.869+290.402L72.9815+290.402L265.749+490L450+290.402L339.112+290.402Z" opacity="1"/></g><g id="Layer 4" vectornator:layerName="Layer 4"><path fill="#fff" d="M296+238C276.149+238+260+254.149+260+274C260+293.851+276.149+310+296+310C315.851+310+332+293.851+332+274C332+254.149+315.851+238+296+238ZM296+240C314.748+240+330+255.252+330+274C330+292.748+314.748+308+296+308C277.252+308+262+292.748+262+274C262+255.252+277.252+240+296+240ZM296+243C278.907+243+265+256.907+265+274C265+291.093+278.907+305+296+305C313.093+305+327+291.093+327+274C327+265.279+323.295+256.913+316.836+251.047C316.633+250.862+316.316+250.876+316.131+251.08C315.945+251.284+315.96+251.602+316.164+251.787C322.415+257.464+326+265.561+326+274C326+290.542+312.542+304+296+304C279.458+304+266+290.542+266+274C266+257.458+279.458+244+296+244C299.549+244+303.024+244.613+306.328+245.824C306.587+245.922+306.875+245.786+306.969+245.527C307.064+245.268+306.931+244.982+306.672+244.887C303.257+243.635+299.667+243+296+243ZM309.529+246.143C309.335+246.131+309.143+246.234+309.051+246.42C308.929+246.669+309.03+246.97+309.277+247.092C309.941+247.42+310.603+247.777+311.244+248.156C311.324+248.203+311.411+248.227+311.498+248.227C311.669+248.227+311.836+248.138+311.93+247.98C312.07+247.742+311.992+247.436+311.754+247.295C311.091+246.903+310.407+246.533+309.721+246.193C309.659+246.163+309.594+246.146+309.529+246.143ZM313.412+248.523C313.286+248.546+313.169+248.617+313.09+248.73C312.932+248.956+312.986+249.269+313.213+249.428C313.546+249.66+313.873+249.899+314.195+250.146C314.286+250.215+314.392+250.248+314.498+250.248C314.648+250.248+314.798+250.182+314.896+250.053C315.064+249.834+315.022+249.52+314.803+249.352C314.47+249.097+314.129+248.849+313.785+248.607C313.672+248.528+313.538+248.501+313.412+248.523ZM296+256C294.346+256+293+257.346+293+259L293+271L282+271C280.346+271+279+272.346+279+274C279+275.654+280.346+277+282+277L293+277L293+289C293+290.654+294.346+292+296+292C297.654+292+299+290.654+299+289L299+277L310+277C311.654+277+313+275.654+313+274C313+272.346+311.654+271+310+271L299+271L299+259C299+257.346+297.654+256+296+256ZM296+257C297.103+257+298+257.897+298+259L298+271.5C298+271.776+298.224+272+298.5+272L310+272C311.103+272+312+272.897+312+274C312+275.103+311.103+276+310+276L298.5+276C298.224+276+298+276.224+298+276.5L298+289C298+290.103+297.103+291+296+291C294.897+291+294+290.103+294+289L294+276.5C294+276.224+293.776+276+293.5+276L282+276C280.897+276+280+275.103+280+274C280+272.897+280.897+272+282+272L293.5+272C293.776+272+294+271.776+294+271.5L294+259C294+257.897+294.897+257+296+257Z" opacity="0"/><path fill="#fff" d="M261.537+232.865C256.886+232.934+253.17+236.757+253.233+241.408L253.233+275.117L219.524+275.117C216.485+275.074+213.658+276.671+212.126+279.296C210.594+281.921+210.594+285.167+212.126+287.793C213.658+290.418+216.485+292.014+219.524+291.971L253.233+291.971L253.233+325.68C253.19+328.72+254.787+331.546+257.412+333.079C260.037+334.611+263.284+334.611+265.909+333.079C268.534+331.546+270.131+328.72+270.088+325.68L270.088+291.971L303.797+291.971C306.836+292.014+309.663+290.418+311.195+287.793C312.727+285.167+312.727+281.921+311.195+279.296C309.663+276.671+306.836+275.074+303.797+275.117L270.088+275.117L270.088+241.408C270.119+239.131+269.228+236.939+267.617+235.33C266.007+233.721+263.814+232.832+261.537+232.865Z" opacity="1"/></g></svg>